HIERARCHY
ROOT Hips
{
	OFFSET 0.00000 0.00000 0.00000
	CHANNELS 6 Xposition Yposition Zposition Zrotation Yrotation Xrotation 
	JOINT LHipJoint
	{
		OFFSET 0 0 0
		CHANNELS 3 Zrotation Yrotation Xrotation
		JOINT LeftUpLeg
		{
			OFFSET 1.66553 -1.82942 0.76350
			CHANNELS 3 Zrotation Yrotation Xrotation
			JOINT LeftLeg
			{
				OFFSET 2.41740 -6.64177 0.00000
				CHANNELS 3 Zrotation Yrotation Xrotation
				JOINT LeftFoot
				{
					OFFSET 2.71614 -7.46254 0.00000
					CHANNELS 3 Zrotation Yrotation Xrotation
					JOINT LeftToeBase
					{
						OFFSET 0.08005 -0.21993 1.82495
						CHANNELS 3 Zrotation Yrotation Xrotation
						End Site
						{
							OFFSET 0.00000 -0.00000 0.93441
						}
					}
				}
			}
		}
	}
	JOINT RHipJoint
	{
		OFFSET 0 0 0
		CHANNELS 3 Zrotation Yrotation Xrotation
		JOINT RightUpLeg
		{
			OFFSET -1.63725 -1.82942 0.76350
			CHANNELS 3 Zrotation Yrotation Xrotation
			JOINT RightLeg
			{
				OFFSET -2.40538 -6.60872 0.00000
				CHANNELS 3 Zrotation Yrotation Xrotation
				JOINT RightFoot
				{
					OFFSET -2.73312 -7.50919 0.00000
					CHANNELS 3 Zrotation Yrotation Xrotation
					JOINT RightToeBase
					{
						OFFSET -0.15567 -0.42769 1.93504
						CHANNELS 3 Zrotation Yrotation Xrotation
						End Site
						{
							OFFSET -0.00000 -0.00000 1.00100
						}
					}
				}
			}
		}
	}
	JOINT LowerBack
	{
		OFFSET 0 0 0
		CHANNELS 3 Zrotation Yrotation Xrotation
		JOINT Spine
		{
			OFFSET 0.00326 2.30118 -0.13017
			CHANNELS 3 Zrotation Yrotation Xrotation
			JOINT Spine1
			{
				OFFSET 0.02887 2.30677 0.00834
				CHANNELS 3 Zrotation Yrotation Xrotation
				JOINT Neck
				{
					OFFSET 0 0 0
					CHANNELS 3 Zrotation Yrotation Xrotation
					JOINT Neck1
					{
						OFFSET 0.12946 1.68326 0.00713
						CHANNELS 3 Zrotation Yrotation Xrotation
						JOINT Head
						{
							OFFSET -0.24364 1.67243 -0.16079
							CHANNELS 3 Zrotation Yrotation Xrotation
							End Site
							{
								OFFSET -0.09229 1.70819 -0.06383
							}
						}
					}
				}
				JOINT LeftShoulder
				{
					OFFSET 0 0 0
					CHANNELS 3 Zrotation Yrotation Xrotation
					JOINT LeftArm
					{
						OFFSET 3.28104 0.69567 -0.00556
						CHANNELS 3 Zrotation Yrotation Xrotation
						JOINT LeftForeArm
						{
							OFFSET 5.70706 -0.00000 -0.00000
							CHANNELS 3 Zrotation Yrotation Xrotation
							JOINT LeftHand
							{
								OFFSET 3.33243 -0.00000 0.00000
								CHANNELS 3 Zrotation Yrotation Xrotation
								JOINT LeftFingerBase
								{
									OFFSET 0 0 0
									CHANNELS 3 Zrotation Yrotation Xrotation
									JOINT LeftHandIndex1
									{
										OFFSET 0.79269 -0.00000 0.00000
										CHANNELS 3 Zrotation Yrotation Xrotation
										End Site
										{
											OFFSET 0.63909 -0.00000 0.00000
										}
									}
								}
								JOINT LThumb
								{
									OFFSET 0 0 0
									CHANNELS 3 Zrotation Yrotation Xrotation
									End Site
									{
										OFFSET 0.64884 -0.00000 0.64884
									}
								}
							}
						}
					}
				}
				JOINT RightShoulder
				{
					OFFSET 0 0 0
					CHANNELS 3 Zrotation Yrotation Xrotation
					JOINT RightArm
					{
						OFFSET -3.40955 0.64424 0.14010
						CHANNELS 3 Zrotation Yrotation Xrotation
						JOINT RightForeArm
						{
							OFFSET -5.88176 -0.00000 -0.00000
							CHANNELS 3 Zrotation Yrotation Xrotation
							JOINT RightHand
							{
								OFFSET -3.28156 -0.00000 0.00000
								CHANNELS 3 Zrotation Yrotation Xrotation
								JOINT RightFingerBase
								{
									OFFSET 0 0 0
									CHANNELS 3 Zrotation Yrotation Xrotation
									JOINT RightHandIndex1
									{
										OFFSET -0.86313 -0.00000 0.00000
										CHANNELS 3 Zrotation Yrotation Xrotation
										End Site
										{
											OFFSET -0.69587 -0.00000 0.00000
										}
									}
								}
								JOINT RThumb
								{
									OFFSET 0 0 0
									CHANNELS 3 Zrotation Yrotation Xrotation
									End Site
									{
										OFFSET -0.70650 -0.00000 0.70650
									}
								}
							}
						}
					}
				}
			}
		}
	}
}
MOTION
Frames: 10
Frame Time: 0.0212766
0.00 0.00 0.00 1.5631 0.4173 19.0440 0.0000 0.0000 0.0000 -19.7075 -8.4583 -19.7567 9.2513 16.9668 56.9553 -0.0755 -5.2549 4.0245 0.6772 -5.2618 -14.6569 0.0000 0.0000 0.0000 11.3182 16.7915 -49.7750 -4.6565 -12.9862 39.3169 -0.1221 -0.1128 6.5594 -0.1285 -2.3110 6.3661 0.3262 -2.8148 13.1271 2.0982 -3.5559 2.9815 2.5917 -1.7477 -4.0938 13.2700 7.8278 2.5637 -24.8281 8.3860 -17.6350 -10.5321 4.9843 -3.6469 0.0000 -0.0000 0.0000 -73.4157 17.5068 34.2176 111.9126 -58.1056 -78.8562 -0.0000 0.0000 -29.8759 32.0271 34.1722 19.3588 -7.1250 0.0000 -0.0000 -1.0140 68.6639 -0.5756 0.0000 -0.0000 0.0000 87.6821 -20.6885 19.6460 -35.7690 45.3535 -15.3579 0.0000 -0.0000 -6.9373 -13.9310 2.0763 -0.5149 7.1250 -0.0000 -0.0000 9.7287 -27.7958 4.1244
0.00 0.00 0.00 -2.4018 -6.5210 19.1219 0.0000 0.0000 0.0000 -12.7155 -12.6970 -60.3804 16.6894 19.7352 80.2793 0.5590 2.1302 -15.0560 0.6875 -5.3011 -14.7694 0.0000 0.0000 0.0000 22.4423 8.5845 -28.6034 -7.6540 -15.8588 51.3067 -0.9566 6.5212 -17.4495 -1.3889 7.4563 -21.0746 3.2863 -0.3417 15.3614 -0.2460 0.0471 3.1351 -2.1303 -0.0304 -5.2733 14.6153 6.5086 1.9800 -25.4304 5.6538 -23.1558 -11.5086 3.6671 -5.6442 -0.0000 -0.0000 0.0000 -81.0251 32.5138 36.9779 45.5693 -51.0444 -22.6806 -0.0000 0.0000 -39.3131 36.1669 35.5786 23.0406 -7.1250 0.0000 -0.0000 4.5583 71.4784 2.8761 -0.0000 -0.0000 0.0000 86.4089 -1.6818 29.3319 -46.6797 51.5653 -23.5473 0.0000 -0.0000 -6.1741 -16.7027 4.0823 -1.2238 7.1250 -0.0000 -0.0000 7.4926 -25.7098 3.5290
0.00 0.00 0.00 -2.3895 -10.6447 8.0394 0.0000 0.0000 0.0000 -12.1524 -12.7369 -50.3752 16.4701 19.6986 79.6294 -0.4018 -18.5460 -9.0783 0.6421 -5.1264 -14.2694 0.0000 0.0000 0.0000 15.1791 12.2252 -42.4354 -21.9483 -19.9087 95.7048 -0.7902 -9.9104 -23.1568 -0.3525 3.8143 -10.5548 -2.2464 -1.0184 17.4784 -2.2784 -1.8459 6.0954 -0.7648 -0.9233 -3.2748 17.4507 9.4684 5.1038 -22.6775 12.8238 -7.4272 -9.8877 6.8095 -0.2282 0.0000 0.0000 0.0000 -72.5125 7.3699 22.1557 53.0323 -54.1476 -28.6143 -0.0000 0.0000 -35.0767 37.5289 37.7192 25.1705 -7.1250 0.0000 -0.0000 5.6301 74.1991 3.8874 0.0000 0.0000 0.0000 89.0745 -8.1506 24.4613 -30.9358 41.6821 -12.0271 0.0000 -0.0000 -7.0583 -19.2609 4.0117 -1.4004 7.1250 -0.0000 -0.0000 5.5678 -25.7266 2.6107
0.00 0.00 0.00 1.2843 -4.0955 6.4517 0.0000 0.0000 0.0000 -18.6217 -13.2108 -38.9979 16.2702 19.6632 79.0358 -1.6566 -23.7349 -0.4650 0.7961 5.6952 15.9027 0.0000 0.0000 0.0000 13.0029 15.1587 -54.6850 -19.3396 -19.9895 88.0687 -0.8536 -10.7623 -24.4574 -0.2367 3.1309 -8.6435 -4.2398 -2.5891 17.1266 -1.5205 -4.1854 5.0770 1.6213 -2.0523 -3.9543 16.2640 10.2455 3.0471 -22.8522 13.8986 -4.8893 -9.4395 7.2107 0.9801 -0.0000 -0.0000 0.0000 -73.0207 -0.0075 23.1969 76.3483 -59.2840 -48.2057 -0.0000 0.0000 -36.0528 38.8475 34.6847 24.6226 -7.1250 0.0000 -0.0000 9.6366 71.3964 6.0762 -0.0000 -0.0000 0.0000 87.1046 -12.1211 21.3521 -26.4917 37.6901 -9.1866 0.0000 -0.0000 -4.5043 -16.8139 3.7445 -1.1306 7.1250 -0.0000 -0.0000 7.4258 -26.0575 3.4362
0.00 0.00 0.00 1.0845 -1.1438 5.7809 0.0000 0.0000 0.0000 -20.7941 -11.2045 -25.3686 12.8258 18.7184 68.5836 -1.5541 -22.1762 2.1964 1.3986 7.4814 21.1497 0.0000 0.0000 0.0000 11.6643 17.5011 -57.0555 -14.7188 -19.3177 74.3883 -0.1260 -6.6197 -12.0928 -0.0001 -0.0678 0.1863 -3.8663 -3.3954 15.1939 -0.2518 -5.0490 4.4628 2.7958 -2.4904 -3.4409 16.5772 11.0137 1.3496 -23.0664 15.2376 -1.7571 -9.2347 7.6984 2.4641 0.0000 -0.0000 0.0000 -72.6715 2.8828 29.2770 93.8120 -59.9450 -63.3007 -0.0000 0.0000 -34.0251 36.8779 32.4363 21.9192 -7.1250 0.0000 -0.0000 7.1586 68.3204 4.0156 0.0000 -0.0000 0.0000 86.0093 -14.7192 17.7469 -26.5373 37.7344 -9.2145 0.0000 -0.0000 -4.0231 -16.7343 3.5594 -1.0694 7.1250 -0.0000 -0.0000 7.4955 -26.2504 3.4349
0.00 0.00 0.00 -0.6662 7.7279 5.8415 0.0000 0.0000 0.0000 -19.4964 -10.2115 -10.9937 8.9519 16.7767 55.9236 0.5230 -5.5407 16.8079 0.5144 4.5972 12.7631 0.0000 0.0000 0.0000 6.8898 19.8728 -49.2638 -5.6955 -14.1266 43.7470 -0.1107 -7.0301 7.2156 -0.4887 -4.4825 12.4382 -1.3506 -4.8021 10.9134 2.4852 -6.4141 4.1327 4.0721 -3.2266 -1.3354 16.2101 11.3889 -0.8248 -25.5852 15.8974 -0.4604 -9.7793 7.8554 3.5708 0.0000 -0.0000 0.0000 -75.4055 9.5452 37.3769 102.0359 -59.4455 -70.4040 -0.0000 0.0000 -28.1556 34.2631 31.2138 19.4444 -7.1250 0.0000 -0.0000 3.7544 66.1919 1.9205 0.0000 -0.0000 0.0000 85.5448 -16.9618 11.9275 -27.4739 38.6274 -9.7935 0.0000 -0.0000 -5.4594 -15.4276 2.6024 -0.7179 7.1250 -0.0000 -0.0000 8.5462 -27.2520 3.7227
0.00 0.00 0.00 -3.1692 23.5821 1.7622 0.0000 0.0000 0.0000 -9.7464 -9.0872 -21.7559 18.4217 19.9402 85.3808 0.0621 -1.4593 -4.4250 0.5227 -4.6336 -12.8664 0.0000 0.0000 0.0000 3.4328 22.7431 -43.6692 -10.1281 -17.4813 59.9157 -0.5765 8.5515 -13.9162 -3.6545 11.6858 -34.6294 1.5077 -4.0397 17.9700 3.9328 -4.6835 3.8620 4.3955 -2.2653 -5.6616 16.2511 11.0101 0.6831 -32.1933 14.8650 -6.0903 -12.4770 7.8325 2.2325 0.0000 -0.0000 0.0000 -82.9949 18.7504 31.9061 79.5695 -59.5849 -50.9795 -0.0000 0.0000 -31.6608 31.1412 34.7653 19.0106 -7.1250 0.0000 -0.0000 -2.7166 69.0036 -1.5633 0.0000 -0.0000 0.0000 87.8009 -15.8269 11.8512 -28.3939 39.4763 -10.3731 0.0000 -0.0000 -3.1389 -13.4924 2.5363 -0.6083 7.1250 -0.0000 -0.0000 10.0240 -27.3307 4.3649
0.00 0.00 0.00 -13.5771 80.8299 -2.1448 0.0000 0.0000 0.0000 -20.5095 -17.5995 -34.6791 10.8444 17.8581 62.2752 0.3161 -13.7905 -13.1206 2.5119 -9.8595 -28.5230 0.0000 0.0000 0.0000 8.3687 18.6145 -52.2928 -15.1003 -19.4144 75.5388 -0.4332 -0.8874 -12.7866 -0.1461 -2.4636 6.7886 -1.3474 -1.8679 15.8578 -1.5334 -2.5483 4.3536 -0.3707 -1.1616 -4.2619 20.3671 13.9271 4.3731 -30.3435 20.3368 -3.1541 -11.8147 10.6264 3.9654 0.0000 0.0000 0.0000 -80.1774 13.2858 22.6676 72.3606 -58.7911 -44.7859 -0.0000 0.0000 -37.6416 29.5036 33.1642 17.1997 -7.1250 0.0000 -0.0000 -3.8546 66.8435 -2.0295 0.0000 0.0000 0.0000 91.6205 -11.7436 15.7755 -21.7270 32.6672 -6.4379 0.0000 0.0000 4.4985 -17.2805 5.7082 -1.7723 7.1250 -0.0000 -0.0000 6.9937 -24.0092 3.5685
0.00 0.00 0.00 -171.2160 62.1972 -156.8980 0.0000 0.0000 0.0000 -9.6870 -24.1397 -33.3167 12.7132 18.6762 68.2324 -0.2732 -10.5210 9.2721 0.4208 -4.1638 -11.5380 0.0000 0.0000 0.0000 7.9449 21.8379 -40.6550 -7.7993 -15.9696 51.8365 -0.3742 2.9938 -10.9134 -1.5429 7.8408 -22.2317 1.5406 -2.1652 17.8976 2.2175 -2.0888 3.7874 1.9479 -0.8976 -5.9214 17.9269 16.1277 9.6113 -35.8007 21.5466 -17.5425 -14.1971 12.8837 -0.0110 0.0000 -0.0000 0.0000 -81.3716 19.3119 29.6120 98.1551 -59.7472 -67.0565 -0.0000 0.0000 -34.6093 34.9272 32.1438 20.3818 -7.1250 0.0000 -0.0000 4.3259 67.3999 2.3330 0.0000 -0.0000 0.0000 87.3598 -17.1641 13.7230 -32.3667 42.8376 -12.9895 0.0000 0.0000 1.6306 -13.6997 4.1763 -1.0170 7.1250 -0.0000 -0.0000 9.7408 -25.6666 4.6239
0.00 0.00 0.00 -181.1100 15.6264 -160.4130 0.0000 0.0000 0.0000 -22.0422 -17.1759 -43.9533 13.5033 18.9564 70.6817 1.5650 -17.8715 -24.0345 0.0919 -1.9550 -5.3812 0.0000 0.0000 0.0000 11.2101 13.7915 -48.9458 -18.2805 -19.9290 84.9667 -1.1944 -10.8976 -27.2144 -0.1365 2.3810 -6.5599 -2.4501 -3.3141 18.6394 -1.0963 -4.4270 3.6594 1.2344 -1.9082 -6.3594 13.1538 9.4161 9.3360 -26.2190 11.5713 -22.6384 -11.8643 7.6956 -5.6280 -0.0000 0.0000 0.0000 -84.6878 15.5282 20.7885 42.8111 -49.6499 -20.5566 -0.0000 0.0000 -40.4817 36.6519 37.4586 24.3485 -7.1250 0.0000 -0.0000 4.1696 73.6259 2.8263 -0.0000 0.0000 0.0000 90.3394 -14.1815 19.9404 -34.6424 44.5551 -14.5619 0.0000 0.0000 0.3261 -15.4083 4.8939 -1.3469 7.1250 -0.0000 -0.0000 8.4203 -24.9020 4.1346
